<mxfile host="app.diagrams.net" agent="Mozilla/5.0 (Macintosh; Intel Mac OS X 10_15_7) AppleWebKit/605.1.15 (KHTML, like Gecko) Version/17.6 Safari/605.1.15" version="24.7.16">
  <diagram name="Page-1" id="8d_hsVVqvFogUVbRHVl7">
    <mxGraphModel dx="882" dy="997" grid="1" gridSize="10" guides="1" tooltips="1" connect="1" arrows="1" fold="1" page="1" pageScale="1" pageWidth="827" pageHeight="1169" math="0" shadow="0">
      <root>
        <mxCell id="0" />
        <mxCell id="1" parent="0" />
        <mxCell id="Sp861o1J_Urvko6aOCPm-1" value="" style="rounded=0;whiteSpace=wrap;html=1;" vertex="1" parent="1">
          <mxGeometry x="280" y="40" width="280" height="1580" as="geometry" />
        </mxCell>
        <mxCell id="Sp861o1J_Urvko6aOCPm-2" value="&lt;p style=&quot;margin: 0px; font-style: normal; font-variant-caps: normal; font-stretch: normal; line-height: normal; font-family: &amp;quot;Times New Roman&amp;quot;; font-size-adjust: none; font-kerning: auto; font-variant-alternates: normal; font-variant-ligatures: normal; font-variant-numeric: normal; font-variant-east-asian: normal; font-variant-position: normal; font-variant-emoji: normal; font-feature-settings: normal; font-optical-sizing: auto; font-variation-settings: normal; -webkit-text-stroke-width: 0px; -webkit-text-stroke-color: rgb(0, 0, 0);&quot;&gt;Login&lt;/p&gt;&lt;div&gt;&lt;br&gt;&lt;/div&gt;" style="ellipse;whiteSpace=wrap;html=1;" vertex="1" parent="1">
          <mxGeometry x="354" y="60" width="120" height="60" as="geometry" />
        </mxCell>
        <mxCell id="Sp861o1J_Urvko6aOCPm-3" value="material management" style="ellipse;whiteSpace=wrap;html=1;" vertex="1" parent="1">
          <mxGeometry x="354" y="130" width="120" height="60" as="geometry" />
        </mxCell>
        <mxCell id="Sp861o1J_Urvko6aOCPm-4" value="stock management" style="ellipse;whiteSpace=wrap;html=1;" vertex="1" parent="1">
          <mxGeometry x="354" y="200" width="120" height="60" as="geometry" />
        </mxCell>
        <mxCell id="Sp861o1J_Urvko6aOCPm-5" value="driver management" style="ellipse;whiteSpace=wrap;html=1;" vertex="1" parent="1">
          <mxGeometry x="354" y="270" width="120" height="60" as="geometry" />
        </mxCell>
        <mxCell id="Sp861o1J_Urvko6aOCPm-6" value="view registered user" style="ellipse;whiteSpace=wrap;html=1;" vertex="1" parent="1">
          <mxGeometry x="354" y="340" width="120" height="60" as="geometry" />
        </mxCell>
        <mxCell id="Sp861o1J_Urvko6aOCPm-7" value="view user request" style="ellipse;whiteSpace=wrap;html=1;" vertex="1" parent="1">
          <mxGeometry x="354" y="410" width="120" height="60" as="geometry" />
        </mxCell>
        <mxCell id="Sp861o1J_Urvko6aOCPm-8" value="update request status" style="ellipse;whiteSpace=wrap;html=1;" vertex="1" parent="1">
          <mxGeometry x="354" y="480" width="120" height="60" as="geometry" />
        </mxCell>
        <mxCell id="Sp861o1J_Urvko6aOCPm-9" value="allocate request to driver" style="ellipse;whiteSpace=wrap;html=1;" vertex="1" parent="1">
          <mxGeometry x="354" y="550" width="120" height="60" as="geometry" />
        </mxCell>
        <mxCell id="Sp861o1J_Urvko6aOCPm-10" value="view payment reports" style="ellipse;whiteSpace=wrap;html=1;" vertex="1" parent="1">
          <mxGeometry x="354" y="620" width="120" height="60" as="geometry" />
        </mxCell>
        <mxCell id="Sp861o1J_Urvko6aOCPm-11" value="view complaints&amp;nbsp;&lt;div&gt;and&lt;/div&gt;&lt;div&gt;send reply&lt;/div&gt;" style="ellipse;whiteSpace=wrap;html=1;" vertex="1" parent="1">
          <mxGeometry x="354" y="690" width="120" height="60" as="geometry" />
        </mxCell>
        <mxCell id="Sp861o1J_Urvko6aOCPm-12" value="view feedback" style="ellipse;whiteSpace=wrap;html=1;" vertex="1" parent="1">
          <mxGeometry x="354" y="760" width="120" height="60" as="geometry" />
        </mxCell>
        <mxCell id="Sp861o1J_Urvko6aOCPm-13" value="view review" style="ellipse;whiteSpace=wrap;html=1;" vertex="1" parent="1">
          <mxGeometry x="354" y="830" width="120" height="60" as="geometry" />
        </mxCell>
        <mxCell id="Sp861o1J_Urvko6aOCPm-14" value="register" style="ellipse;whiteSpace=wrap;html=1;" vertex="1" parent="1">
          <mxGeometry x="354" y="900" width="120" height="60" as="geometry" />
        </mxCell>
        <mxCell id="Sp861o1J_Urvko6aOCPm-15" value="view profile" style="ellipse;whiteSpace=wrap;html=1;" vertex="1" parent="1">
          <mxGeometry x="354" y="970" width="120" height="60" as="geometry" />
        </mxCell>
        <mxCell id="Sp861o1J_Urvko6aOCPm-16" value="view material" style="ellipse;whiteSpace=wrap;html=1;" vertex="1" parent="1">
          <mxGeometry x="354" y="1040" width="120" height="60" as="geometry" />
        </mxCell>
        <mxCell id="Sp861o1J_Urvko6aOCPm-17" value="send request" style="ellipse;whiteSpace=wrap;html=1;" vertex="1" parent="1">
          <mxGeometry x="354" y="1110" width="120" height="60" as="geometry" />
        </mxCell>
        <mxCell id="Sp861o1J_Urvko6aOCPm-18" value="view request status&amp;nbsp;&lt;div&gt;and payment&lt;/div&gt;" style="ellipse;whiteSpace=wrap;html=1;" vertex="1" parent="1">
          <mxGeometry x="354" y="1180" width="120" height="60" as="geometry" />
        </mxCell>
        <mxCell id="Sp861o1J_Urvko6aOCPm-19" value="send review" style="ellipse;whiteSpace=wrap;html=1;" vertex="1" parent="1">
          <mxGeometry x="354" y="1250" width="120" height="60" as="geometry" />
        </mxCell>
        <mxCell id="Sp861o1J_Urvko6aOCPm-20" value="send complaints&lt;div&gt;and view reply&lt;/div&gt;" style="ellipse;whiteSpace=wrap;html=1;" vertex="1" parent="1">
          <mxGeometry x="354" y="1320" width="120" height="60" as="geometry" />
        </mxCell>
        <mxCell id="Sp861o1J_Urvko6aOCPm-21" value="view allocated&lt;div&gt;orders&lt;/div&gt;" style="ellipse;whiteSpace=wrap;html=1;" vertex="1" parent="1">
          <mxGeometry x="354" y="1390" width="120" height="60" as="geometry" />
        </mxCell>
        <mxCell id="Sp861o1J_Urvko6aOCPm-42" value="update order status" style="ellipse;whiteSpace=wrap;html=1;" vertex="1" parent="1">
          <mxGeometry x="354" y="1460" width="120" height="60" as="geometry" />
        </mxCell>
        <mxCell id="Sp861o1J_Urvko6aOCPm-43" value="Admin" style="shape=umlActor;verticalLabelPosition=bottom;verticalAlign=top;html=1;outlineConnect=0;" vertex="1" parent="1">
          <mxGeometry x="90" y="630" width="30" height="60" as="geometry" />
        </mxCell>
        <mxCell id="Sp861o1J_Urvko6aOCPm-44" value="" style="endArrow=none;html=1;rounded=0;entryX=0;entryY=0.5;entryDx=0;entryDy=0;exitX=1;exitY=0.3333333333333333;exitDx=0;exitDy=0;exitPerimeter=0;" edge="1" parent="1" source="Sp861o1J_Urvko6aOCPm-43" target="Sp861o1J_Urvko6aOCPm-2">
          <mxGeometry width="50" height="50" relative="1" as="geometry">
            <mxPoint x="160" y="360" as="sourcePoint" />
            <mxPoint x="210" y="310" as="targetPoint" />
          </mxGeometry>
        </mxCell>
        <mxCell id="Sp861o1J_Urvko6aOCPm-45" value="" style="endArrow=none;html=1;rounded=0;entryX=0;entryY=0.5;entryDx=0;entryDy=0;" edge="1" parent="1" target="Sp861o1J_Urvko6aOCPm-3">
          <mxGeometry width="50" height="50" relative="1" as="geometry">
            <mxPoint x="120" y="650" as="sourcePoint" />
            <mxPoint x="270" y="490" as="targetPoint" />
          </mxGeometry>
        </mxCell>
        <mxCell id="Sp861o1J_Urvko6aOCPm-46" value="" style="endArrow=none;html=1;rounded=0;entryX=0;entryY=0.5;entryDx=0;entryDy=0;" edge="1" parent="1" target="Sp861o1J_Urvko6aOCPm-4">
          <mxGeometry width="50" height="50" relative="1" as="geometry">
            <mxPoint x="120" y="650" as="sourcePoint" />
            <mxPoint x="330" y="450" as="targetPoint" />
          </mxGeometry>
        </mxCell>
        <mxCell id="Sp861o1J_Urvko6aOCPm-47" value="" style="endArrow=none;html=1;rounded=0;entryX=0;entryY=0.5;entryDx=0;entryDy=0;exitX=1;exitY=0.3333333333333333;exitDx=0;exitDy=0;exitPerimeter=0;" edge="1" parent="1" source="Sp861o1J_Urvko6aOCPm-43" target="Sp861o1J_Urvko6aOCPm-5">
          <mxGeometry width="50" height="50" relative="1" as="geometry">
            <mxPoint x="280" y="500" as="sourcePoint" />
            <mxPoint x="330" y="450" as="targetPoint" />
          </mxGeometry>
        </mxCell>
        <mxCell id="Sp861o1J_Urvko6aOCPm-48" value="" style="endArrow=none;html=1;rounded=0;entryX=0;entryY=0.5;entryDx=0;entryDy=0;" edge="1" parent="1" target="Sp861o1J_Urvko6aOCPm-6">
          <mxGeometry width="50" height="50" relative="1" as="geometry">
            <mxPoint x="120" y="650" as="sourcePoint" />
            <mxPoint x="270" y="570" as="targetPoint" />
          </mxGeometry>
        </mxCell>
        <mxCell id="Sp861o1J_Urvko6aOCPm-49" value="" style="endArrow=none;html=1;rounded=0;entryX=0;entryY=0.5;entryDx=0;entryDy=0;" edge="1" parent="1" target="Sp861o1J_Urvko6aOCPm-7">
          <mxGeometry width="50" height="50" relative="1" as="geometry">
            <mxPoint x="120" y="650" as="sourcePoint" />
            <mxPoint x="330" y="520" as="targetPoint" />
          </mxGeometry>
        </mxCell>
        <mxCell id="Sp861o1J_Urvko6aOCPm-50" value="" style="endArrow=none;html=1;rounded=0;entryX=0;entryY=0.5;entryDx=0;entryDy=0;exitX=1;exitY=0.3333333333333333;exitDx=0;exitDy=0;exitPerimeter=0;" edge="1" parent="1" source="Sp861o1J_Urvko6aOCPm-43" target="Sp861o1J_Urvko6aOCPm-8">
          <mxGeometry width="50" height="50" relative="1" as="geometry">
            <mxPoint x="280" y="570" as="sourcePoint" />
            <mxPoint x="330" y="520" as="targetPoint" />
          </mxGeometry>
        </mxCell>
        <mxCell id="Sp861o1J_Urvko6aOCPm-51" value="" style="endArrow=none;html=1;rounded=0;entryX=0;entryY=0.5;entryDx=0;entryDy=0;exitX=1;exitY=0.3333333333333333;exitDx=0;exitDy=0;exitPerimeter=0;" edge="1" parent="1" source="Sp861o1J_Urvko6aOCPm-43" target="Sp861o1J_Urvko6aOCPm-9">
          <mxGeometry width="50" height="50" relative="1" as="geometry">
            <mxPoint x="210" y="680" as="sourcePoint" />
            <mxPoint x="260" y="630" as="targetPoint" />
          </mxGeometry>
        </mxCell>
        <mxCell id="Sp861o1J_Urvko6aOCPm-52" value="" style="endArrow=none;html=1;rounded=0;entryX=0;entryY=0.5;entryDx=0;entryDy=0;exitX=1;exitY=0.3333333333333333;exitDx=0;exitDy=0;exitPerimeter=0;" edge="1" parent="1" source="Sp861o1J_Urvko6aOCPm-43" target="Sp861o1J_Urvko6aOCPm-10">
          <mxGeometry width="50" height="50" relative="1" as="geometry">
            <mxPoint x="200" y="710" as="sourcePoint" />
            <mxPoint x="250" y="660" as="targetPoint" />
          </mxGeometry>
        </mxCell>
        <mxCell id="Sp861o1J_Urvko6aOCPm-53" value="" style="endArrow=none;html=1;rounded=0;entryX=0;entryY=0.5;entryDx=0;entryDy=0;exitX=1;exitY=0.3333333333333333;exitDx=0;exitDy=0;exitPerimeter=0;" edge="1" parent="1" source="Sp861o1J_Urvko6aOCPm-43" target="Sp861o1J_Urvko6aOCPm-11">
          <mxGeometry width="50" height="50" relative="1" as="geometry">
            <mxPoint x="180" y="745" as="sourcePoint" />
            <mxPoint x="230" y="695" as="targetPoint" />
          </mxGeometry>
        </mxCell>
        <mxCell id="Sp861o1J_Urvko6aOCPm-54" value="" style="endArrow=none;html=1;rounded=0;entryX=0;entryY=0.5;entryDx=0;entryDy=0;exitX=1;exitY=0.3333333333333333;exitDx=0;exitDy=0;exitPerimeter=0;" edge="1" parent="1" source="Sp861o1J_Urvko6aOCPm-43" target="Sp861o1J_Urvko6aOCPm-12">
          <mxGeometry width="50" height="50" relative="1" as="geometry">
            <mxPoint x="160" y="750" as="sourcePoint" />
            <mxPoint x="210" y="700" as="targetPoint" />
          </mxGeometry>
        </mxCell>
        <mxCell id="Sp861o1J_Urvko6aOCPm-55" value="" style="endArrow=none;html=1;rounded=0;entryX=0;entryY=0.5;entryDx=0;entryDy=0;" edge="1" parent="1" target="Sp861o1J_Urvko6aOCPm-13">
          <mxGeometry width="50" height="50" relative="1" as="geometry">
            <mxPoint x="120" y="650" as="sourcePoint" />
            <mxPoint x="190" y="740" as="targetPoint" />
          </mxGeometry>
        </mxCell>
        <mxCell id="Sp861o1J_Urvko6aOCPm-56" value="Change password" style="ellipse;whiteSpace=wrap;html=1;" vertex="1" parent="1">
          <mxGeometry x="354" y="1530" width="120" height="60" as="geometry" />
        </mxCell>
        <mxCell id="Sp861o1J_Urvko6aOCPm-57" value="" style="endArrow=none;html=1;rounded=0;entryX=0;entryY=0.5;entryDx=0;entryDy=0;" edge="1" parent="1" target="Sp861o1J_Urvko6aOCPm-56">
          <mxGeometry width="50" height="50" relative="1" as="geometry">
            <mxPoint x="120" y="649" as="sourcePoint" />
            <mxPoint x="330" y="1290" as="targetPoint" />
          </mxGeometry>
        </mxCell>
        <mxCell id="Sp861o1J_Urvko6aOCPm-58" value="Client" style="shape=umlActor;verticalLabelPosition=bottom;verticalAlign=top;html=1;outlineConnect=0;" vertex="1" parent="1">
          <mxGeometry x="730" y="900" width="30" height="60" as="geometry" />
        </mxCell>
        <mxCell id="Sp861o1J_Urvko6aOCPm-62" value="" style="endArrow=none;html=1;rounded=0;exitX=1;exitY=0.5;exitDx=0;exitDy=0;entryX=0;entryY=0.3333333333333333;entryDx=0;entryDy=0;entryPerimeter=0;" edge="1" parent="1" source="Sp861o1J_Urvko6aOCPm-2" target="Sp861o1J_Urvko6aOCPm-58">
          <mxGeometry width="50" height="50" relative="1" as="geometry">
            <mxPoint x="640" y="270" as="sourcePoint" />
            <mxPoint x="690" y="220" as="targetPoint" />
          </mxGeometry>
        </mxCell>
        <mxCell id="Sp861o1J_Urvko6aOCPm-63" value="" style="endArrow=none;html=1;rounded=0;exitX=1;exitY=0.5;exitDx=0;exitDy=0;entryX=0;entryY=0.3333333333333333;entryDx=0;entryDy=0;entryPerimeter=0;" edge="1" parent="1" source="Sp861o1J_Urvko6aOCPm-14" target="Sp861o1J_Urvko6aOCPm-58">
          <mxGeometry width="50" height="50" relative="1" as="geometry">
            <mxPoint x="600" y="960" as="sourcePoint" />
            <mxPoint x="650" y="910" as="targetPoint" />
          </mxGeometry>
        </mxCell>
        <mxCell id="Sp861o1J_Urvko6aOCPm-64" value="" style="endArrow=none;html=1;rounded=0;exitX=1;exitY=0.5;exitDx=0;exitDy=0;entryX=0;entryY=0.3333333333333333;entryDx=0;entryDy=0;entryPerimeter=0;" edge="1" parent="1" source="Sp861o1J_Urvko6aOCPm-15" target="Sp861o1J_Urvko6aOCPm-58">
          <mxGeometry width="50" height="50" relative="1" as="geometry">
            <mxPoint x="590" y="850" as="sourcePoint" />
            <mxPoint x="640" y="800" as="targetPoint" />
          </mxGeometry>
        </mxCell>
        <mxCell id="Sp861o1J_Urvko6aOCPm-65" value="" style="endArrow=none;html=1;rounded=0;exitX=1;exitY=0.5;exitDx=0;exitDy=0;entryX=0;entryY=0.3333333333333333;entryDx=0;entryDy=0;entryPerimeter=0;" edge="1" parent="1" source="Sp861o1J_Urvko6aOCPm-16" target="Sp861o1J_Urvko6aOCPm-58">
          <mxGeometry width="50" height="50" relative="1" as="geometry">
            <mxPoint x="590" y="1140" as="sourcePoint" />
            <mxPoint x="640" y="1090" as="targetPoint" />
          </mxGeometry>
        </mxCell>
        <mxCell id="Sp861o1J_Urvko6aOCPm-66" value="" style="endArrow=none;html=1;rounded=0;exitX=1;exitY=0.5;exitDx=0;exitDy=0;" edge="1" parent="1" source="Sp861o1J_Urvko6aOCPm-17">
          <mxGeometry width="50" height="50" relative="1" as="geometry">
            <mxPoint x="590" y="1140" as="sourcePoint" />
            <mxPoint x="730" y="920" as="targetPoint" />
          </mxGeometry>
        </mxCell>
        <mxCell id="Sp861o1J_Urvko6aOCPm-67" value="" style="endArrow=none;html=1;rounded=0;exitX=1;exitY=0.5;exitDx=0;exitDy=0;entryX=0;entryY=0.3333333333333333;entryDx=0;entryDy=0;entryPerimeter=0;" edge="1" parent="1" source="Sp861o1J_Urvko6aOCPm-18" target="Sp861o1J_Urvko6aOCPm-58">
          <mxGeometry width="50" height="50" relative="1" as="geometry">
            <mxPoint x="590" y="1210" as="sourcePoint" />
            <mxPoint x="640" y="1160" as="targetPoint" />
          </mxGeometry>
        </mxCell>
        <mxCell id="Sp861o1J_Urvko6aOCPm-68" value="" style="endArrow=none;html=1;rounded=0;exitX=1;exitY=0.5;exitDx=0;exitDy=0;" edge="1" parent="1" source="Sp861o1J_Urvko6aOCPm-19">
          <mxGeometry width="50" height="50" relative="1" as="geometry">
            <mxPoint x="590" y="1210" as="sourcePoint" />
            <mxPoint x="730" y="920" as="targetPoint" />
          </mxGeometry>
        </mxCell>
        <mxCell id="Sp861o1J_Urvko6aOCPm-69" value="" style="endArrow=none;html=1;rounded=0;exitX=1;exitY=0.5;exitDx=0;exitDy=0;" edge="1" parent="1" source="Sp861o1J_Urvko6aOCPm-20">
          <mxGeometry width="50" height="50" relative="1" as="geometry">
            <mxPoint x="590" y="1270" as="sourcePoint" />
            <mxPoint x="730" y="920" as="targetPoint" />
          </mxGeometry>
        </mxCell>
        <mxCell id="Sp861o1J_Urvko6aOCPm-70" value="" style="endArrow=none;html=1;rounded=0;exitX=1;exitY=0.5;exitDx=0;exitDy=0;" edge="1" parent="1" source="Sp861o1J_Urvko6aOCPm-56">
          <mxGeometry width="50" height="50" relative="1" as="geometry">
            <mxPoint x="590" y="1270" as="sourcePoint" />
            <mxPoint x="730" y="920" as="targetPoint" />
          </mxGeometry>
        </mxCell>
        <mxCell id="Sp861o1J_Urvko6aOCPm-71" value="Driver" style="shape=umlActor;verticalLabelPosition=bottom;verticalAlign=top;html=1;outlineConnect=0;" vertex="1" parent="1">
          <mxGeometry x="731" y="1400" width="30" height="60" as="geometry" />
        </mxCell>
        <mxCell id="Sp861o1J_Urvko6aOCPm-72" value="" style="endArrow=none;html=1;rounded=0;exitX=1;exitY=0.5;exitDx=0;exitDy=0;entryX=0;entryY=0.3333333333333333;entryDx=0;entryDy=0;entryPerimeter=0;" edge="1" parent="1" source="Sp861o1J_Urvko6aOCPm-56" target="Sp861o1J_Urvko6aOCPm-71">
          <mxGeometry width="50" height="50" relative="1" as="geometry">
            <mxPoint x="570" y="1230" as="sourcePoint" />
            <mxPoint x="620" y="1180" as="targetPoint" />
          </mxGeometry>
        </mxCell>
        <mxCell id="Sp861o1J_Urvko6aOCPm-73" value="" style="endArrow=none;html=1;rounded=0;exitX=1;exitY=0.5;exitDx=0;exitDy=0;entryX=0;entryY=0.3333333333333333;entryDx=0;entryDy=0;entryPerimeter=0;" edge="1" parent="1" source="Sp861o1J_Urvko6aOCPm-42" target="Sp861o1J_Urvko6aOCPm-71">
          <mxGeometry width="50" height="50" relative="1" as="geometry">
            <mxPoint x="570" y="1230" as="sourcePoint" />
            <mxPoint x="620" y="1180" as="targetPoint" />
          </mxGeometry>
        </mxCell>
        <mxCell id="Sp861o1J_Urvko6aOCPm-74" value="" style="endArrow=none;html=1;rounded=0;exitX=1;exitY=0.5;exitDx=0;exitDy=0;" edge="1" parent="1" source="Sp861o1J_Urvko6aOCPm-21">
          <mxGeometry width="50" height="50" relative="1" as="geometry">
            <mxPoint x="570" y="1230" as="sourcePoint" />
            <mxPoint x="730" y="1420" as="targetPoint" />
          </mxGeometry>
        </mxCell>
        <mxCell id="Sp861o1J_Urvko6aOCPm-75" value="" style="endArrow=none;html=1;rounded=0;exitX=1;exitY=0.5;exitDx=0;exitDy=0;" edge="1" parent="1" source="Sp861o1J_Urvko6aOCPm-15">
          <mxGeometry width="50" height="50" relative="1" as="geometry">
            <mxPoint x="570" y="1230" as="sourcePoint" />
            <mxPoint x="730" y="1420" as="targetPoint" />
          </mxGeometry>
        </mxCell>
        <mxCell id="Sp861o1J_Urvko6aOCPm-79" value="" style="endArrow=none;html=1;rounded=0;exitX=1;exitY=0.5;exitDx=0;exitDy=0;" edge="1" parent="1" source="Sp861o1J_Urvko6aOCPm-2">
          <mxGeometry width="50" height="50" relative="1" as="geometry">
            <mxPoint x="570" y="650" as="sourcePoint" />
            <mxPoint x="730" y="1421.0526315789473" as="targetPoint" />
          </mxGeometry>
        </mxCell>
      </root>
    </mxGraphModel>
  </diagram>
</mxfile>
